<?xml version="1.0" encoding="UTF-8" standalone="no"?>
<svg
   xmlns:dc="http://purl.org/dc/elements/1.1/"
   xmlns:cc="http://creativecommons.org/ns#"
   xmlns:rdf="http://www.w3.org/1999/02/22-rdf-syntax-ns#"
   xmlns:svg="http://www.w3.org/2000/svg"
   xmlns="http://www.w3.org/2000/svg"
   xmlns:xlink="http://www.w3.org/1999/xlink"
   xmlns:sodipodi="http://sodipodi.sourceforge.net/DTD/sodipodi-0.dtd"
   xmlns:inkscape="http://www.inkscape.org/namespaces/inkscape"
   width="128"
   height="128"
   id="svg3258"
   version="1.1"
   inkscape:version="0.48.3.1 r9886"
   sodipodi:docname="house.svg"
   inkscape:export-filename="/media/sf_icarus/Users/deepstar/Projects/immoweb-map/extension/house.png"
   inkscape:export-xdpi="18.518518"
   inkscape:export-ydpi="18.518518">
  <sodipodi:namedview
     pagecolor="#ffffff"
     bordercolor="#666666"
     borderopacity="1"
     objecttolerance="10"
     gridtolerance="10"
     guidetolerance="10"
     inkscape:pageopacity="0"
     inkscape:pageshadow="2"
     inkscape:window-width="1920"
     inkscape:window-height="961"
     id="namedview3282"
     showgrid="false"
     inkscape:zoom="5.9296875"
     inkscape:cx="34.150198"
     inkscape:cy="64"
     inkscape:window-x="0"
     inkscape:window-y="24"
     inkscape:window-maximized="1"
     inkscape:current-layer="svg3258" />
  <defs
     id="defs3260">
    <linearGradient
       id="linearGradient5421">
      <stop
         stop-color="#b3b3b3"
         id="stop5423"
         offset="0" />
      <stop
         stop-color="#b3b3b3"
         stop-opacity="0"
         id="stop5425"
         offset="1" />
    </linearGradient>
    <linearGradient
       gradientUnits="userSpaceOnUse"
       y2="652.62"
       x2="92.856552"
       y1="698.7558"
       x1="46.720779"
       id="linearGradient5427"
       xlink:href="#linearGradient5421" />
    <linearGradient
       gradientUnits="userSpaceOnUse"
       y2="652.40387"
       x2="92.87738"
       y1="698.59967"
       x1="46.681576"
       id="linearGradient4889"
       xlink:href="#linearGradient4883" />
    <linearGradient
       id="linearGradient4883">
      <stop
         stop-color="#b3b3b3"
         id="stop4885"
         offset="0" />
      <stop
         stop-color="#b3b3b3"
         stop-opacity="0"
         id="stop4887"
         offset="1" />
    </linearGradient>
    <linearGradient
       xlink:href="#linearGradient4883"
       id="linearGradient5444"
       x1="-0.003178"
       y1="0.994036"
       x2="1.440441"
       y2="-0.449583" />
  </defs>
  <metadata
     id="metadata7">image/svg+xml<rdf:RDF>
  <cc:Work
     rdf:about="">
    <dc:format>image/svg+xml</dc:format>
    <dc:type
       rdf:resource="http://purl.org/dc/dcmitype/StillImage" />
    <dc:title></dc:title>
  </cc:Work>
</rdf:RDF>
</metadata>
  <g
     transform="matrix(0.368667,0,0,0.368667,-40.982663,448.4555)"
     id="g2986"
     style="fill:#004f80;fill-opacity:1">
    <path
       d="m 248.039,-1062.8326 0,0 z m 0,0 -95.44897,-84.5301 -95.503933,84.5667 0,120.84098 c 0,3.12085 2.52182,5.62433 5.64267,5.62433 l 59.687673,0 0,-52.98242 c 0,-3.12085 2.50351,-5.64264 5.62435,-5.64264 l 49.04355,0 c 3.1208,0 5.62434,2.52179 5.62434,5.64264 l 0,52.98242 59.70596,0 c 3.12085,0 5.62436,-2.50348 5.62436,-5.62433 l 0,-120.87758 z m -190.952918,0.037 0,0 z"
       id="rect2391"
       inkscape:connector-curvature="0"
       style="fill:#004f80;fill-opacity:1" />
    <path
       d="m 152.03613,-1193.6228 -135.452397,119.9374 14.268356,16.0968 121.738151,-107.8023 121.71045,107.8023 14.24066,-16.0968 -135.42471,-119.9374 -0.5264,0.6096 -0.55411,-0.6096 z"
       id="path2399"
       inkscape:connector-curvature="0"
       style="fill:#004f80;fill-opacity:1" />
    <path
       d="m 57.086082,-1176.3583 34.337555,0 -0.29921,20.3378 -34.038345,30.7499 0,-51.0877 z"
       id="rect2404"
       inkscape:connector-curvature="0"
       style="fill:#004f80;fill-opacity:1" />
  </g>
</svg>
